<svg width="1000" height="1000" viewBox="0 0 1000 1000" fill="none" xmlns="http://www.w3.org/2000/svg">
<path fill-rule="evenodd" clip-rule="evenodd" d="M725 312.5C725 436.764 624.264 537.5 500 537.5C375.736 537.5 275 436.764 275 312.5C275 264.175 314.175 225 362.5 225C410.825 225 450 264.175 450 312.5V480.253C482.426 489.903 517.574 489.903 550 480.253V312.5C550 264.175 589.175 225 637.5 225C685.825 225 725 264.175 725 312.5ZM362.5 275C383.211 275 400 291.789 400 312.5V456.133C354.663 424.509 325 371.969 325 312.5C325 291.789 341.789 275 362.5 275ZM600 312.5V456.133C645.337 424.509 675 371.969 675 312.5C675 291.789 658.211 275 637.5 275C616.789 275 600 291.789 600 312.5Z" fill="white"/>
<path d="M600 687.5V568.753C536.265 593.646 463.682 593.628 400 568.753V687.5C400 708.211 383.211 725 362.5 725C341.789 725 325 708.211 325 687.5V524.642C306.028 508.974 289.194 490.811 275 470.654V687.5C275 735.825 314.175 775 362.5 775C410.825 775 450 735.825 450 687.5V633.678C483.066 638.783 516.934 638.783 550 633.678V687.5C550 735.825 589.175 775 637.5 775C685.825 775 725 735.825 725 687.5V470.654C710.806 490.811 693.971 508.974 675 524.642V687.5C675 708.211 658.211 725 637.5 725C616.789 725 600 708.211 600 687.5Z" fill="white"/>
</svg>
